<?xml version="1.0" standalone="yes"?>

<svg version="1.1" viewBox="0.0 0.0 492.63254593175856 315.34120734908134" fill="none" stroke="none" stroke-linecap="square" stroke-miterlimit="10" xmlns="http://www.w3.org/2000/svg" xmlns:xlink="http://www.w3.org/1999/xlink"><clipPath id="p.0"><path d="m0 0l492.63254 0l0 315.34122l-492.63254 0l0 -315.34122z" clip-rule="nonzero"></path></clipPath><g clip-path="url(#p.0)"><path fill="#000000" fill-opacity="0.0" d="m0 0l492.63254 0l0 315.34122l-492.63254 0z" fill-rule="evenodd"></path><path fill="#000000" fill-opacity="0.0" d="m23.076115 107.80303l409.35434 0l0 50.803154l-409.35434 0z" fill-rule="evenodd"></path><path stroke="#000000" stroke-width="2.0" stroke-linejoin="round" stroke-linecap="butt" d="m23.076115 107.80303l409.35434 0l0 50.803154l-409.35434 0z" fill-rule="evenodd"></path><path fill="#000000" d="m32.62299 139.0646l2.40625 -11.453125l1.40625 0l-1.484375 7.09375l4.125 -3.9375l1.859375 0l-3.53125 3.09375l2.140625 5.203125l-1.546875 0l-1.65625 -4.265625l-1.71875 1.484375l-0.578125 2.78125l-1.421875 0zm7.421875 0l3.625 -4.21875l-2.078125 -4.078125l1.5625 0l0.703125 1.46875q0.390625 0.828125 0.703125 1.59375l2.390625 -3.0625l1.734375 0l-3.484375 4.1875l2.09375 4.109375l-1.5625 0l-0.828125 -1.6875q-0.265625 -0.546875 -0.609375 -1.34375l-2.46875 3.03125l-1.78125 0z" fill-rule="nonzero"></path><path fill="#000000" d="m50.71674 139.0646l1.25 -5.953125q-0.796875 0.640625 -2.265625 1.015625l0.1875 -0.875q0.71875 -0.296875 1.421875 -0.75q0.71875 -0.46875 1.0625 -0.828125q0.21875 -0.203125 0.40625 -0.515625l0.578125 0l-1.65625 7.90625l-0.984375 0z" fill-rule="nonzero"></path><path fill="#000000" d="m54.877613 139.0646l0.328125 -1.609375l1.609375 0l-0.28125 1.40625q-0.265625 1.265625 -0.828125 1.84375q-0.5625 0.59375 -1.3125 0.671875l0.125 -0.609375q0.9375 -0.265625 1.234375 -1.703125l-0.875 0zm4.1171875 0l2.40625 -11.453125l1.40625 0l-1.484375 7.09375l4.125004 -3.9375l1.859375 0l-3.5312538 3.09375l2.1406288 5.203125l-1.546875 0l-1.6562538 -4.265625l-1.71875 1.484375l-0.578125 2.78125l-1.421875 0zm7.453129 3.203125l0.09375 -1.328125q0.4375 0.125 0.84375 0.125q0.4375 0 0.703125 -0.1875q0.34375 -0.265625 0.75 -0.96875l0.453125 -0.8125l-1.390625 -8.328125l1.390625 0l0.625 4.1875q0.1875 1.25 0.328125 2.484375l3.703125 -6.671875l1.484375 0l-5.296875 9.40625q-0.765625 1.375 -1.359375 1.8125q-0.59375 0.453125 -1.359375 0.453125q-0.5 0 -0.96875 -0.171875z" fill-rule="nonzero"></path><path fill="#000000" d="m77.088554 139.0646l1.25 -5.953125q-0.796875 0.640625 -2.265625 1.015625l0.1875 -0.875q0.71875 -0.296875 1.421875 -0.75q0.71875 -0.46875 1.0625 -0.828125q0.21875 -0.203125 0.40625 -0.515625l0.578125 0l-1.65625 7.90625l-0.984375 0z" fill-rule="nonzero"></path><path fill="#000000" d="m81.24943 139.0646l0.328125 -1.609375l1.609375 0l-0.28125 1.40625q-0.265625 1.265625 -0.828125 1.84375q-0.5625 0.59375 -1.3125 0.671875l0.125 -0.609375q0.9375 -0.265625 1.234375 -1.703125l-0.875 0zm4.2734375 0l2.390625 -11.453125l1.890625 0l1.15625 7.421875q0.21875 1.453125 0.296875 2.796875q0.46875 -1.15625 1.59375 -3.125l4.015625 -7.09375l1.90625 0l-2.390625 11.453125l-1.5 0l1.1875 -5.578125q0.421875 -1.921875 1.1875 -4.328125q-0.484375 1.125 -1.21875 2.40625l-4.265625 7.5l-1.46875 0l-1.15625 -7.34375q-0.15625 -1.015625 -0.21875 -2.359375q-0.203125 1.515625 -0.390625 2.390625l-1.515625 7.3125l-1.5 0z" fill-rule="nonzero"></path><path fill="#000000" d="m100.78849 139.0646l1.25 -5.953125q-0.796875 0.640625 -2.265625 1.015625l0.1875 -0.875q0.71875 -0.296875 1.421875 -0.75q0.71875 -0.46875 1.0625 -0.828125q0.21875 -0.203125 0.40625 -0.515625l0.578125 0l-1.65625 7.90625l-0.984375 0z" fill-rule="nonzero"></path><path fill="#000000" fill-opacity="0.0" d="m23.055305 210.91698l409.35434 0l0 50.803146l-409.35434 0z" fill-rule="evenodd"></path><path stroke="#000000" stroke-width="2.0" stroke-linejoin="round" stroke-linecap="butt" d="m23.055305 210.91698l409.35434 0l0 50.803146l-409.35434 0z" fill-rule="evenodd"></path><path fill="#000000" d="m32.60218 242.17856l2.40625 -11.453125l1.40625 0l-1.484375 7.09375l4.125 -3.9375l1.859375 0l-3.53125 3.09375l2.140625 5.203125l-1.546875 0l-1.65625 -4.265625l-1.71875 1.484375l-0.578125 2.78125l-1.421875 0zm7.421875 0l3.625 -4.21875l-2.078125 -4.078125l1.5625 0l0.703125 1.46875q0.390625 0.828125 0.703125 1.59375l2.390625 -3.0625l1.734375 0l-3.484375 4.1875l2.09375 4.109375l-1.5625 0l-0.828125 -1.6875q-0.265625 -0.546875 -0.609375 -1.34375l-2.46875 3.03125l-1.78125 0z" fill-rule="nonzero"></path><path fill="#000000" d="m48.41468 242.17856l1.203125 -5.703125l0.875 0l-0.203125 1.0q0.5625 -0.59375 1.0625 -0.859375q0.5 -0.265625 1.03125 -0.265625q0.6875 0 1.078125 0.375q0.40625 0.375 0.40625 1.0q0 0.3125 -0.140625 1.0l-0.734375 3.453125l-0.96875 0l0.765625 -3.609375q0.109375 -0.53125 0.109375 -0.78125q0 -0.28125 -0.203125 -0.453125q-0.1875 -0.1875 -0.5625 -0.1875q-0.75 0 -1.328125 0.546875q-0.578125 0.53125 -0.859375 1.828125l-0.546875 2.65625l-0.984375 0z" fill-rule="nonzero"></path><path fill="#000000" d="m54.856804 242.17856l0.328125 -1.609375l1.609375 0l-0.28125 1.40625q-0.265625 1.265625 -0.828125 1.84375q-0.5625 0.59375 -1.3125 0.671875l0.125 -0.609375q0.9375 -0.265625 1.234375 -1.703125l-0.875 0zm4.1171875 0l2.40625 -11.453125l1.40625 0l-1.484375 7.09375l4.125 -3.9375l1.859375 0l-3.53125 3.09375l2.140625 5.203125l-1.546875 0l-1.65625 -4.265625l-1.71875 1.484375l-0.578125 2.78125l-1.421875 0zm7.453125 3.203125l0.09375 -1.328125q0.4375 0.125 0.84375 0.125q0.4375 0 0.703125 -0.1875q0.34375 -0.265625 0.75 -0.96875l0.453125 -0.8125l-1.390625 -8.328125l1.390625 0l0.625 4.1875q0.1875 1.25 0.328125 2.484375l3.703125 -6.671875l1.484375 0l-5.296875 9.40625q-0.765625 1.375 -1.359375 1.8125q-0.59375 0.453125 -1.359375 0.453125q-0.5 0 -0.96875 -0.171875z" fill-rule="nonzero"></path><path fill="#000000" d="m74.78649 242.17856l1.203125 -5.703125l0.875 0l-0.203125 1.0q0.5625 -0.59375 1.0625 -0.859375q0.5 -0.265625 1.03125 -0.265625q0.6875 0 1.078125 0.375q0.40625 0.375 0.40625 1.0q0 0.3125 -0.140625 1.0l-0.734375 3.453125l-0.96875 0l0.765625 -3.609375q0.109375 -0.53125 0.109375 -0.78125q0 -0.28125 -0.203125 -0.453125q-0.1875 -0.1875 -0.5625 -0.1875q-0.75 0 -1.328125 0.546875q-0.578125 0.53125 -0.859375 1.828125l-0.546875 2.65625l-0.984375 0z" fill-rule="nonzero"></path><path fill="#000000" d="m81.228615 242.17856l0.328125 -1.609375l1.609375 0l-0.28125 1.40625q-0.265625 1.265625 -0.828125 1.84375q-0.5625 0.59375 -1.3125 0.671875l0.125 -0.609375q0.9375 -0.265625 1.234375 -1.703125l-0.875 0zm4.2734375 0l2.390625 -11.453125l1.890625 0l1.15625 7.421875q0.21875 1.453125 0.296875 2.796875q0.46875 -1.15625 1.59375 -3.125l4.015625 -7.09375l1.90625 0l-2.390625 11.453125l-1.5 0l1.1875 -5.578125q0.421875 -1.921875 1.1875 -4.328125q-0.484375 1.125 -1.21875 2.40625l-4.265625 7.5l-1.46875 0l-1.15625 -7.34375q-0.15625 -1.015625 -0.21875 -2.359375q-0.203125 1.515625 -0.390625 2.390625l-1.515625 7.3125l-1.5 0z" fill-rule="nonzero"></path><path fill="#000000" d="m98.48643 242.17856l1.203125 -5.703125l0.875 0l-0.203125 1.0q0.5625 -0.59375 1.0625 -0.859375q0.5 -0.265625 1.03125 -0.265625q0.6875 0 1.078125 0.375q0.40625 0.375 0.40625 1.0q0 0.3125 -0.140625 1.0l-0.734375 3.453125l-0.96875 0l0.765625 -3.609375q0.109375 -0.53125 0.109375 -0.78125q0 -0.28125 -0.203125 -0.453125q-0.1875 -0.1875 -0.5625 -0.1875q-0.75 0 -1.328125 0.546875q-0.578125 0.53125 -0.859375 1.828125l-0.546875 2.65625l-0.984375 0z" fill-rule="nonzero"></path><path fill="#000000" fill-opacity="0.0" d="m23.076115 133.2046l-0.031496048 103.11812" fill-rule="evenodd"></path><path stroke="#000000" stroke-width="1.0" stroke-linejoin="round" stroke-linecap="butt" stroke-dasharray="8.0,3.0" d="m23.076115 133.2046l-0.031496048 103.11812" fill-rule="evenodd"></path><path fill="#000000" fill-opacity="0.0" d="m432.43045 133.2046l-0.03149414 103.11812" fill-rule="evenodd"></path><path stroke="#000000" stroke-width="1.0" stroke-linejoin="round" stroke-linecap="butt" stroke-dasharray="8.0,3.0" d="m432.43045 133.2046l-0.03149414 103.11812" fill-rule="evenodd"></path><path fill="#000000" fill-opacity="0.0" d="m227.75508 74.26953l-0.03149414 204.6929" fill-rule="evenodd"></path><path stroke="#000000" stroke-width="1.0" stroke-linejoin="round" stroke-linecap="butt" stroke-dasharray="8.0,3.0,1.0,3.0" d="m227.75508 74.26953l-0.03149414 204.6929" fill-rule="evenodd"></path><path fill="#000000" fill-opacity="0.0" d="m204.7601 272.49652l45.95276 0l0 33.322845l-45.95276 0z" fill-rule="evenodd"></path><path fill="#000000" d="m226.91617 292.8409l1.515625 0.375q-0.46875 1.875 -1.71875 2.859375q-1.234375 0.984375 -3.015625 0.984375q-1.859375 0 -3.015625 -0.75q-1.15625 -0.765625 -1.765625 -2.1875q-0.609375 -1.4375 -0.609375 -3.078125q0 -1.796875 0.6875 -3.125q0.6875 -1.328125 1.9375 -2.015625q1.265625 -0.703125 2.78125 -0.703125q1.71875 0 2.890625 0.875q1.171875 0.875 1.640625 2.46875l-1.5 0.34375q-0.390625 -1.25 -1.15625 -1.8125q-0.75 -0.578125 -1.90625 -0.578125q-1.3125 0 -2.203125 0.640625q-0.890625 0.625 -1.25 1.703125q-0.359375 1.0625 -0.359375 2.1875q0 1.46875 0.421875 2.5625q0.4375 1.078125 1.328125 1.625q0.90625 0.53125 1.953125 0.53125q1.265625 0 2.140625 -0.734375q0.890625 -0.734375 1.203125 -2.171875zm3.3203125 4.015625l0 -11.453125l1.515625 0l0 10.09375l5.640625 0l0 1.359375l-7.15625 0z" fill-rule="nonzero"></path><path fill="#000000" fill-opacity="0.0" d="m128.15305 70.96172l199.1496 0l0 24.283463l-199.1496 0z" fill-rule="evenodd"></path><path stroke="#000000" stroke-width="2.0" stroke-linejoin="round" stroke-linecap="butt" d="m128.15305 70.96172l199.1496 0l0 24.283463l-199.1496 0z" fill-rule="evenodd"></path><path fill="#000000" d="m224.35695 88.97458l3.3700867 0l0 -15.621559l0 0l0 15.621559l3.3700714 0l-3.3700714 5.1973343z" fill-rule="evenodd"></path><path stroke="#000000" stroke-width="1.0" stroke-linejoin="round" stroke-linecap="butt" d="m224.35695 88.97458l3.3700867 0l0 -15.621559l0 0l0 15.621559l3.3700714 0l-3.3700714 5.1973343z" fill-rule="evenodd"></path><path fill="#000000" fill-opacity="0.0" d="m99.1667 62.964546l46.11023 0l0 33.322838l-46.11023 0z" fill-rule="evenodd"></path><path fill="#000000" d="m114.05733 86.38705q-1.203125 1.125 -2.3125 1.125q-1.15625 0 -1.953125 -0.875q-0.796875 -0.890625 -0.796875 -2.5q0 -1.546875 0.59375 -2.796875q0.609375 -1.25 1.546875 -1.875q0.953125 -0.625 1.953125 -0.625q0.75 0 1.375 0.421875q0.625 0.421875 1.0 1.28125l0.328125 -1.515625l1.21875 0l-2.390625 11.484375l-1.421875 0l0.859375 -4.125zm-3.671875 -2.4375q0 1.21875 0.5 1.8125q0.515625 0.59375 1.28125 0.59375q0.640625 0 1.28125 -0.53125q0.65625 -0.53125 1.078125 -1.59375q0.421875 -1.0625 0.421875 -2.0625q0 -1.015625 -0.53125 -1.59375q-0.515625 -0.578125 -1.28125 -0.578125q-0.734375 0 -1.296875 0.484375q-0.71875 0.625 -1.140625 1.8125q-0.3125 0.90625 -0.3125 1.65625z" fill-rule="nonzero"></path><path fill="#000000" fill-opacity="0.0" d="m436.1628 122.86691l59.370087 0l0 20.818893l-59.370087 0z" fill-rule="evenodd"></path><path fill="#000000" d="m445.69406 147.22691l2.390625 -11.453125l1.421875 0l-0.921875 4.390625q0.796875 -0.765625 1.46875 -1.09375q0.6875 -0.328125 1.40625 -0.328125q1.03125 0 1.59375 0.546875q0.578125 0.53125 0.578125 1.421875q0 0.4375 -0.25 1.609375l-1.03125 4.90625l-1.40625 0l1.046875 -5.03125q0.234375 -1.09375 0.234375 -1.375q0 -0.40625 -0.28125 -0.65625q-0.28125 -0.265625 -0.8125 -0.265625q-0.765625 0 -1.46875 0.40625q-0.6875 0.40625 -1.09375 1.109375q-0.390625 0.6875 -0.71875 2.25l-0.734375 3.5625l-1.421875 0z" fill-rule="nonzero"></path><path fill="#000000" d="m456.70187 147.22691l1.25 -5.953125q-0.796875 0.640625 -2.265625 1.015625l0.1875 -0.875q0.71875 -0.296875 1.421875 -0.75q0.71875 -0.46875 1.0625 -0.828125q0.21875 -0.203125 0.40625 -0.515625l0.578125 0l-1.65625 7.90625l-0.984375 0z" fill-rule="nonzero"></path><path fill="#000000" fill-opacity="0.0" d="m441.92905 224.37544l45.95276 0l0 20.818893l-45.95276 0z" fill-rule="evenodd"></path><path fill="#000000" d="m451.4603 248.73544l2.390625 -11.453125l1.421875 0l-0.921875 4.390625q0.796875 -0.765625 1.46875 -1.09375q0.6875 -0.328125 1.40625 -0.328125q1.03125 0 1.59375 0.546875q0.578125 0.53125 0.578125 1.421875q0 0.4375 -0.25 1.609375l-1.03125 4.90625l-1.40625 0l1.046875 -5.03125q0.234375 -1.09375 0.234375 -1.375q0 -0.40625 -0.28125 -0.65625q-0.28125 -0.265625 -0.8125 -0.265625q-0.765625 0 -1.46875 0.40625q-0.6875 0.40625 -1.09375 1.109375q-0.390625 0.6875 -0.71875 2.25l-0.734375 3.5625l-1.421875 0z" fill-rule="nonzero"></path><path fill="#000000" d="m460.18686 248.73544l1.203125 -5.703125l0.875 0l-0.203125 1.0q0.5625 -0.59375 1.0625 -0.859375q0.5 -0.265625 1.03125 -0.265625q0.6875 0 1.078125 0.375q0.40625 0.375 0.40625 1.0q0 0.3125 -0.140625 1.0l-0.734375 3.453125l-0.96875 0l0.765625 -3.609375q0.109375 -0.53125 0.109375 -0.78125q0 -0.28125 -0.203125 -0.453125q-0.1875 -0.1875 -0.5625 -0.1875q-0.75 0 -1.328125 0.546875q-0.578125 0.53125 -0.859375 1.828125l-0.546875 2.65625l-0.984375 0z" fill-rule="nonzero"></path><path fill="#000000" fill-opacity="0.0" d="m327.3155 59.72109l-99.622055 0" fill-rule="evenodd"></path><path stroke="#000000" stroke-width="1.0" stroke-linejoin="round" stroke-linecap="butt" d="m327.3155 59.72109l-99.622055 0" fill-rule="evenodd"></path><path fill="#000000" fill-opacity="0.0" d="m327.3155 65.126724l0 -13.574806" fill-rule="evenodd"></path><path stroke="#000000" stroke-width="1.0" stroke-linejoin="round" stroke-linecap="butt" d="m327.3155 65.126724l0 -13.574806" fill-rule="evenodd"></path><path fill="#000000" fill-opacity="0.0" d="m227.73238 66.555046l0 -16.314957" fill-rule="evenodd"></path><path stroke="#000000" stroke-width="1.0" stroke-linejoin="round" stroke-linecap="butt" d="m227.73238 66.555046l0 -16.314957" fill-rule="evenodd"></path><path fill="#000000" fill-opacity="0.0" d="m265.7597 31.487274l45.95276 0l0 20.818897l-45.95276 0z" fill-rule="evenodd"></path><path fill="#000000" d="m275.29095 55.847275l2.390625 -11.453125l1.421875 0l-0.859375 4.09375q0.671875 -0.625 1.21875 -0.875q0.546875 -0.25 1.140625 -0.25q1.171875 0 1.9375 0.875q0.78125 0.859375 0.78125 2.515625q0 1.09375 -0.3125 2.015625q-0.3125 0.90625 -0.78125 1.53125q-0.453125 0.625 -0.953125 1.0q-0.484375 0.359375 -1.0 0.546875q-0.515625 0.1875 -0.984375 0.1875q-0.828125 0 -1.453125 -0.4375q-0.625 -0.4375 -0.96875 -1.328125l-0.328125 1.578125l-1.25 0zm2.09375 -3.40625l0 0.265625q0 1.0625 0.5 1.625q0.515625 0.546875 1.265625 0.546875q0.75 0 1.359375 -0.515625q0.625 -0.53125 1.015625 -1.625q0.40625 -1.109375 0.40625 -2.03125q0 -1.046875 -0.5 -1.625q-0.5 -0.578125 -1.25 -0.578125q-0.765625 0 -1.40625 0.59375q-0.640625 0.578125 -1.0625 1.8125q-0.328125 0.90625 -0.328125 1.53125z" fill-rule="nonzero"></path><path fill="#000000" fill-opacity="0.0" d="m432.41135 30.79287l-204.66142 0" fill-rule="evenodd"></path><path stroke="#000000" stroke-width="1.0" stroke-linejoin="round" stroke-linecap="butt" d="m432.41135 30.79287l-204.66142 0" fill-rule="evenodd"></path><path fill="#000000" fill-opacity="0.0" d="m432.41135 36.1985l0 -13.574802" fill-rule="evenodd"></path><path stroke="#000000" stroke-width="1.0" stroke-linejoin="round" stroke-linecap="butt" d="m432.41135 36.1985l0 -13.574802" fill-rule="evenodd"></path><path fill="#000000" fill-opacity="0.0" d="m227.73238 37.62683l0 -16.31496" fill-rule="evenodd"></path><path stroke="#000000" stroke-width="1.0" stroke-linejoin="round" stroke-linecap="butt" d="m227.73238 37.62683l0 -16.31496" fill-rule="evenodd"></path><path fill="#000000" fill-opacity="0.0" d="m265.7597 2.559055l45.95276 0l0 20.818897l-45.95276 0z" fill-rule="evenodd"></path><path fill="#000000" d="m275.46283 26.919056l2.390625 -11.453125l3.546875 0q0.96875 0 1.4375 0.078125q0.765625 0.125 1.296875 0.46875q0.53125 0.328125 0.8125 0.90625q0.296875 0.5625 0.296875 1.265625q0 0.9375 -0.53125 1.65625q-0.515625 0.71875 -1.578125 1.09375q0.921875 0.3125 1.375 0.921875q0.46875 0.609375 0.46875 1.4375q0 0.9375 -0.546875 1.8125q-0.53125 0.859375 -1.4375 1.34375q-0.890625 0.46875 -1.984375 0.46875l-5.546875 0zm2.90625 -6.5625l2.3125 0q1.671875 0 2.390625 -0.53125q0.734375 -0.53125 0.734375 -1.546875q0 -0.484375 -0.234375 -0.828125q-0.21875 -0.359375 -0.59375 -0.515625q-0.375 -0.171875 -1.421875 -0.171875l-2.4375 0l-0.75 3.59375zm-1.109375 5.265625l2.609375 0q1.046875 0 1.40625 -0.078125q0.71875 -0.125 1.171875 -0.421875q0.453125 -0.296875 0.703125 -0.78125q0.265625 -0.5 0.265625 -1.046875q0 -0.796875 -0.5 -1.21875q-0.5 -0.421875 -1.921875 -0.421875l-2.90625 0l-0.828125 3.96875z" fill-rule="nonzero"></path></g></svg>

